<?xml version="1.0" encoding="UTF-8" standalone="no"?>
<!-- Created with Inkscape (http://www.inkscape.org/) -->

<svg
   xmlns:osb="http://www.openswatchbook.org/uri/2009/osb"
   xmlns:dc="http://purl.org/dc/elements/1.1/"
   xmlns:cc="http://creativecommons.org/ns#"
   xmlns:rdf="http://www.w3.org/1999/02/22-rdf-syntax-ns#"
   xmlns:svg="http://www.w3.org/2000/svg"
   xmlns="http://www.w3.org/2000/svg"
   xmlns:xlink="http://www.w3.org/1999/xlink"
   xmlns:sodipodi="http://sodipodi.sourceforge.net/DTD/sodipodi-0.dtd"
   xmlns:inkscape="http://www.inkscape.org/namespaces/inkscape"
   width="100"
   height="290"
   id="svg2"
   version="1.1"
   inkscape:version="0.48.2 r9819"
   sodipodi:docname="legend_round.svg">
  <defs
     id="defs4">
    <linearGradient
       id="linearGradient5627"
       osb:paint="solid">
      <stop
         style="stop-color:#000000;stop-opacity:1;"
         offset="0"
         id="stop5629" />
    </linearGradient>
    <linearGradient
       id="linearGradient5621"
       osb:paint="solid">
      <stop
         style="stop-color:#ffffff;stop-opacity:1;"
         offset="0"
         id="stop5623" />
    </linearGradient>
    <radialGradient
       r="34.02"
       cy="142.60001"
       cx="-776.40002"
       gradientUnits="userSpaceOnUse"
       id="radialGradient56893"
       xlink:href="#radialGradient25616-6"
       inkscape:collect="always" />
    <radialGradient
       r="34.02"
       cy="142.60001"
       cx="-776.40002"
       gradientUnits="userSpaceOnUse"
       id="radialGradient56872"
       xlink:href="#radialGradient25616-6"
       inkscape:collect="always" />
    <radialGradient
       r="34.02"
       cy="142.60001"
       cx="-776.40002"
       gradientUnits="userSpaceOnUse"
       id="radialGradient56779"
       xlink:href="#radialGradient25616-6"
       inkscape:collect="always" />
    <radialGradient
       r="34.02"
       cy="142.60001"
       cx="-776.40002"
       gradientUnits="userSpaceOnUse"
       id="radialGradient56742"
       xlink:href="#radialGradient25616-6"
       inkscape:collect="always" />
    <radialGradient
       id="radialGradient25616-6"
       gradientUnits="userSpaceOnUse"
       cy="142.60001"
       cx="-776.40002"
       r="34.02">
      <stop
         id="stop7574-7-01"
         stop-color="#FFF"
         offset="0" />
      <stop
         id="stop7580-4-65"
         stop-color="#f3f3f3"
         offset="0.7412" />
      <stop
         id="stop7576-0-7"
         stop-color="#c2c2c2"
         offset="1" />
    </radialGradient>
    <radialGradient
       id="radialGradient25614"
       gradientUnits="userSpaceOnUse"
       cy="142.60001"
       cx="-776.40002"
       r="34.02">
      <stop
         id="stop7574-7-7"
         stop-color="#FFF"
         offset="0" />
      <stop
         id="stop7580-4-77"
         stop-color="#f3f3f3"
         offset="0.7412" />
      <stop
         id="stop7576-0-92"
         stop-color="#c2c2c2"
         offset="1" />
    </radialGradient>
    <radialGradient
       id="radialGradient14360"
       gradientUnits="userSpaceOnUse"
       cy="142.60001"
       cx="-776.40002"
       r="34.02">
      <stop
         id="stop7574-7-0"
         stop-color="#FFF"
         offset="0" />
      <stop
         id="stop7580-4-1"
         stop-color="#f3f3f3"
         offset="0.7412" />
      <stop
         id="stop7576-0-66"
         stop-color="#c2c2c2"
         offset="1" />
    </radialGradient>
    <radialGradient
       id="radialGradient25612"
       gradientUnits="userSpaceOnUse"
       cy="142.60001"
       cx="-776.40002"
       r="34.02">
      <stop
         id="stop7574-7-54"
         stop-color="#FFF"
         offset="0" />
      <stop
         id="stop7580-4-6"
         stop-color="#f3f3f3"
         offset="0.7412" />
      <stop
         id="stop7576-0-2"
         stop-color="#c2c2c2"
         offset="1" />
    </radialGradient>
    <radialGradient
       id="radialGradient25608"
       gradientUnits="userSpaceOnUse"
       cy="142.60001"
       cx="-776.40002"
       r="34.02">
      <stop
         id="stop7574-7-15"
         stop-color="#FFF"
         offset="0" />
      <stop
         id="stop7580-4-57"
         stop-color="#f3f3f3"
         offset="0.7412" />
      <stop
         id="stop7576-0-6"
         stop-color="#c2c2c2"
         offset="1" />
    </radialGradient>
    <radialGradient
       id="radialGradient25602"
       gradientUnits="userSpaceOnUse"
       cy="142.60001"
       cx="-776.40002"
       r="34.02">
      <stop
         id="stop7574-7-3"
         stop-color="#FFF"
         offset="0" />
      <stop
         id="stop7580-4-5"
         stop-color="#f3f3f3"
         offset="0.7412" />
      <stop
         id="stop7576-0-1"
         stop-color="#c2c2c2"
         offset="1" />
    </radialGradient>
    <radialGradient
       id="radialGradient25606"
       gradientUnits="userSpaceOnUse"
       cy="142.60001"
       cx="-776.40002"
       r="34.02">
      <stop
         id="stop7574-7-5"
         stop-color="#FFF"
         offset="0" />
      <stop
         id="stop7580-4-3"
         stop-color="#f3f3f3"
         offset="0.7412" />
      <stop
         id="stop7576-0-4"
         stop-color="#c2c2c2"
         offset="1" />
    </radialGradient>
    <radialGradient
       id="radialGradient25604"
       gradientUnits="userSpaceOnUse"
       cy="142.60001"
       cx="-776.40002"
       r="34.02">
      <stop
         id="stop7574-7-9"
         stop-color="#FFF"
         offset="0" />
      <stop
         id="stop7580-4-7"
         stop-color="#f3f3f3"
         offset="0.7412" />
      <stop
         id="stop7576-0-9-2"
         stop-color="#c2c2c2"
         offset="1" />
    </radialGradient>
    <radialGradient
       id="radialGradient25610"
       gradientUnits="userSpaceOnUse"
       cy="142.60001"
       cx="-776.40002"
       r="34.02">
      <stop
         id="stop7574-7-1"
         stop-color="#FFF"
         offset="0" />
      <stop
         id="stop7580-4-2"
         stop-color="#f3f3f3"
         offset="0.7412" />
      <stop
         id="stop7576-0-3"
         stop-color="#c2c2c2"
         offset="1" />
    </radialGradient>
    <radialGradient
       id="radialGradient25616-7"
       gradientUnits="userSpaceOnUse"
       cy="142.60001"
       cx="-776.40002"
       r="34.02">
      <stop
         id="stop7574-7-4"
         stop-color="#FFF"
         offset="0" />
      <stop
         id="stop7580-4-0"
         stop-color="#f3f3f3"
         offset="0.7412" />
      <stop
         id="stop7576-0-9"
         stop-color="#c2c2c2"
         offset="1" />
    </radialGradient>
    <radialGradient
       r="34.02"
       cx="-776.40002"
       cy="142.60001"
       gradientUnits="userSpaceOnUse"
       id="radialGradient25616">
      <stop
         offset="0"
         stop-color="#FFF"
         id="stop7574-7" />
      <stop
         offset="0.7412"
         stop-color="#f3f3f3"
         id="stop7580-4" />
      <stop
         offset="1"
         stop-color="#c2c2c2"
         id="stop7576-0" />
    </radialGradient>
    <radialGradient
       inkscape:collect="always"
       xlink:href="#radialGradient25610"
       id="radialGradient5800"
       gradientUnits="userSpaceOnUse"
       cx="-776.40002"
       cy="142.60001"
       r="34.02" />
    <radialGradient
       inkscape:collect="always"
       xlink:href="#radialGradient25608"
       id="radialGradient5802"
       gradientUnits="userSpaceOnUse"
       cx="-776.40002"
       cy="142.60001"
       r="34.02" />
    <radialGradient
       inkscape:collect="always"
       xlink:href="#radialGradient25612"
       id="radialGradient5804"
       gradientUnits="userSpaceOnUse"
       cx="-776.40002"
       cy="142.60001"
       r="34.02" />
    <radialGradient
       inkscape:collect="always"
       xlink:href="#radialGradient14360"
       id="radialGradient5806"
       gradientUnits="userSpaceOnUse"
       cx="-776.40002"
       cy="142.60001"
       r="34.02" />
    <radialGradient
       inkscape:collect="always"
       xlink:href="#radialGradient25614"
       id="radialGradient5808"
       gradientUnits="userSpaceOnUse"
       cx="-776.40002"
       cy="142.60001"
       r="34.02" />
    <radialGradient
       inkscape:collect="always"
       xlink:href="#radialGradient25616-6"
       id="radialGradient5810"
       gradientUnits="userSpaceOnUse"
       cx="-776.40002"
       cy="142.60001"
       r="34.02" />
    <radialGradient
       inkscape:collect="always"
       xlink:href="#radialGradient25602"
       id="radialGradient5812"
       gradientUnits="userSpaceOnUse"
       cx="-776.40002"
       cy="142.60001"
       r="34.02" />
    <radialGradient
       inkscape:collect="always"
       xlink:href="#radialGradient25604"
       id="radialGradient5814"
       gradientUnits="userSpaceOnUse"
       cx="-776.40002"
       cy="142.60001"
       r="34.02" />
    <radialGradient
       inkscape:collect="always"
       xlink:href="#radialGradient25606"
       id="radialGradient5816"
       gradientUnits="userSpaceOnUse"
       cx="-776.40002"
       cy="142.60001"
       r="34.02" />
    <radialGradient
       inkscape:collect="always"
       xlink:href="#radialGradient25610"
       id="radialGradient6153"
       gradientUnits="userSpaceOnUse"
       cx="-776.40002"
       cy="142.60001"
       r="34.02" />
    <radialGradient
       inkscape:collect="always"
       xlink:href="#radialGradient25608"
       id="radialGradient6155"
       gradientUnits="userSpaceOnUse"
       cx="-776.40002"
       cy="142.60001"
       r="34.02" />
    <radialGradient
       inkscape:collect="always"
       xlink:href="#radialGradient25612"
       id="radialGradient6157"
       gradientUnits="userSpaceOnUse"
       cx="-776.40002"
       cy="142.60001"
       r="34.02" />
    <radialGradient
       inkscape:collect="always"
       xlink:href="#radialGradient14360"
       id="radialGradient6159"
       gradientUnits="userSpaceOnUse"
       cx="-776.40002"
       cy="142.60001"
       r="34.02" />
    <radialGradient
       inkscape:collect="always"
       xlink:href="#radialGradient25614"
       id="radialGradient6161"
       gradientUnits="userSpaceOnUse"
       cx="-776.40002"
       cy="142.60001"
       r="34.02" />
    <radialGradient
       inkscape:collect="always"
       xlink:href="#radialGradient25616-6"
       id="radialGradient6163"
       gradientUnits="userSpaceOnUse"
       cx="-776.40002"
       cy="142.60001"
       r="34.02" />
    <radialGradient
       inkscape:collect="always"
       xlink:href="#radialGradient25602"
       id="radialGradient6165"
       gradientUnits="userSpaceOnUse"
       cx="-776.40002"
       cy="142.60001"
       r="34.02" />
    <radialGradient
       inkscape:collect="always"
       xlink:href="#radialGradient25604"
       id="radialGradient6167"
       gradientUnits="userSpaceOnUse"
       cx="-776.40002"
       cy="142.60001"
       r="34.02" />
    <radialGradient
       inkscape:collect="always"
       xlink:href="#radialGradient25606"
       id="radialGradient6169"
       gradientUnits="userSpaceOnUse"
       cx="-776.40002"
       cy="142.60001"
       r="34.02" />
  </defs>
  <sodipodi:namedview
     id="base"
     pagecolor="#ffffff"
     bordercolor="#666666"
     borderopacity="1.0"
     inkscape:pageopacity="0.0"
     inkscape:pageshadow="2"
     inkscape:zoom="1.979899"
     inkscape:cx="140.74707"
     inkscape:cy="178.53769"
     inkscape:document-units="px"
     inkscape:current-layer="layer1"
     showgrid="false"
     inkscape:snap-bbox="true"
     inkscape:window-width="1920"
     inkscape:window-height="1018"
     inkscape:window-x="1432"
     inkscape:window-y="-8"
     inkscape:window-maximized="1"
     fit-margin-top="0"
     fit-margin-left="0"
     fit-margin-right="0"
     fit-margin-bottom="0"
     inkscape:showpageshadow="false"
     borderlayer="false"
     showborder="true" />
  <metadata
     id="metadata7">
    <rdf:RDF>
      <cc:Work
         rdf:about="">
        <dc:format>image/svg+xml</dc:format>
        <dc:type
           rdf:resource="http://purl.org/dc/dcmitype/StillImage" />
        <dc:title></dc:title>
      </cc:Work>
    </rdf:RDF>
  </metadata>
  <g
     inkscape:label="Layer 1"
     inkscape:groupmode="layer"
     id="layer1"
     transform="translate(-150.24361,-439.74477)">
    <g
       transform="translate(205.71429,141.17025)"
       id="g5645">
      <g
         id="layer1-4"
         transform="matrix(0.56235431,0,0,0.56235431,-47.694233,69.925673)">
        <g
           id="g4544-1-7"
           transform="matrix(0.2200351,0.14318132,-0.15684359,0.20086838,405.3541,186.31198)">
          <flowRoot
             style="font-size:40px;font-style:normal;font-weight:normal;fill:#000000;font-family:Bitstream Vera Sans"
             id="flowRoot9862"
             font-weight="normal"
             xml:space="preserve"
             font-size="40px"
             transform="matrix(3.0135456,-2.1480904,2.3530598,3.301096,-1659.9563,255.70351)"
             font-style="normal"><flowRegion
               id="flowRegion9864"><rect
                 id="rect9866"
                 y="217"
                 width="214.7"
                 x="210.3"
                 height="44.009998" /></flowRegion><flowPara
               id="flowPara9868" /><flowPara
               id="flowPara9903" /></flowRoot>        </g>
        <flowRoot
           id="flowRoot13995"
           style="font-size:36px;font-style:normal;font-variant:normal;font-weight:normal;font-stretch:normal;text-align:start;line-height:125%;writing-mode:lr-tb;text-anchor:start;fill:#000000;font-family:Arial"
           line-height="125%"
           font-weight="normal"
           xml:space="preserve"
           font-size="36px"
           transform="translate(99.118954,-0.09180462)"
           font-stretch="normal"
           font-variant="normal"
           font-style="normal"><flowRegion
             id="flowRegion13997"><rect
               id="rect13999"
               style="text-align:start"
               height="51.650002"
               width="1203"
               y="12.93"
               x="47.619999" /></flowRegion><flowPara
             id="flowPara14001" /></flowRoot>        <g
           style="fill-rule:nonzero"
           id="g25060"
           transform="matrix(2.1151162,0,0,2.1151162,1695.4836,-471.5145)">
          <path
             style="fill:url(#radialGradient6153);stroke:#484848;stroke-width:2.16562486;stroke-miterlimit:4;stroke-dasharray:none"
             inkscape:connector-curvature="0"
             id="path25029"
             d="m -742.3,142.6 c 0,18.79 -15.23,34.02 -34.02,34.02 -18.79,0 -34.02,-15.23 -34.02,-34.02 0,-18.79 15.23,-34.02 34.02,-34.02 18.79,0 34.02,15.23 34.02,34.02 z"
             transform="matrix(0.31346345,0,0,0.31346345,-546.4247,518.21576)"
             stroke-miterlimit="4" />
          <g
             style="fill:#539a23"
             id="g25055"
             transform="matrix(0.3979587,0,0,0.3979587,-532.39184,352.32335)">
            <rect
               id="rect25049"
               height="5.4359999"
               width="33.98"
               y="519.09998"
               x="-665.59998" />
            <rect
               id="rect25051"
               height="5.4359999"
               width="33.98"
               y="526.59998"
               x="-658.79999" />
            <rect
               id="rect25053"
               height="5.4359999"
               width="33.98"
               y="534"
               x="-664.90002" />
          </g>
        </g>
      </g>
      <g
         id="layer1-8"
         transform="matrix(0.56235431,0,0,0.56235431,-47.694233,39.175695)">
        <g
           id="g4544-1-7-6"
           transform="matrix(0.2200351,0.14318132,-0.15684359,0.20086838,405.3541,186.31198)">
          <flowRoot
             style="font-size:40px;font-style:normal;font-weight:normal;fill:#000000;font-family:Bitstream Vera Sans"
             id="flowRoot9862-5"
             font-weight="normal"
             xml:space="preserve"
             font-size="40px"
             transform="matrix(3.0135456,-2.1480904,2.3530598,3.301096,-1659.9563,255.70351)"
             font-style="normal"><flowRegion
               id="flowRegion9864-0"><rect
                 id="rect9866-2"
                 y="217"
                 width="214.7"
                 x="210.3"
                 height="44.009998" /></flowRegion><flowPara
               id="flowPara9868-86" /><flowPara
               id="flowPara9903-0" /></flowRoot>        </g>
        <flowRoot
           id="flowRoot13995-24"
           style="font-size:36px;font-style:normal;font-variant:normal;font-weight:normal;font-stretch:normal;text-align:start;line-height:125%;writing-mode:lr-tb;text-anchor:start;fill:#000000;font-family:Arial"
           line-height="125%"
           font-weight="normal"
           xml:space="preserve"
           font-size="36px"
           transform="translate(99.118954,-0.09180462)"
           font-stretch="normal"
           font-variant="normal"
           font-style="normal"><flowRegion
             id="flowRegion13997-8"><rect
               id="rect13999-6"
               style="text-align:start"
               height="51.650002"
               width="1203"
               y="12.93"
               x="47.619999" /></flowRegion><flowPara
             id="flowPara14001-5" /></flowRoot>        <g
           id="g24973"
           transform="matrix(2.1151162,0,0,2.1151162,1695.4836,-406.96738)">
          <path
             style="fill:url(#radialGradient6155);fill-rule:nonzero;stroke:#484848;stroke-width:2.16562486;stroke-miterlimit:4;stroke-dasharray:none"
             inkscape:connector-curvature="0"
             id="path24960"
             d="m -742.3,142.6 c 0,18.79 -15.23,34.02 -34.02,34.02 -18.79,0 -34.02,-15.23 -34.02,-34.02 0,-18.79 15.23,-34.02 34.02,-34.02 18.79,0 34.02,15.23 34.02,34.02 z"
             transform="matrix(0.31346345,0,0,0.31346345,-546.4247,487.6987)"
             stroke-miterlimit="4" />
          <g
             style="fill:#8231b5"
             id="g24969"
             transform="translate(-66.009733,-23.551212)">
            <path
               inkscape:connector-curvature="0"
               id="path47929-4"
               d="m -731.3,553.1 c 1.042,0.5991 2.302,0.2266 2.666,-0.8948 0.639,-1.288 1.847,-2.892 3.192,-3.535 1.242,-0.6936 2.602,-0.3157 3.73,0.5886 0.562,0.3949 0.4147,0.2462 0.7473,0.8475 -0.5238,1.044 -0.7057,0.0168 -1.156,-0.3743 -0.3971,-0.368 -1.545,-0.7695 -2.079,-0.681 -2.536,0.4784 -2.782,3.437 -4.507,5.037 -0.8691,0.5379 -2.249,0.1918 -2.579,-0.8287 l -0.0101,-0.0789 -0.004,-0.0795 3e-5,-5e-5 z" />
            <path
               inkscape:connector-curvature="0"
               id="path47931-8"
               d="m -722.8,552.8 c -0.3532,1.149 0.2894,2.295 1.463,2.401 1.398,0.3374 3.23,1.16 4.155,2.329 0.9516,1.057 0.8848,2.468 0.2529,3.767 -0.2605,0.6356 -0.1481,0.4589 -0.6607,0.9166 -1.134,-0.2793 -0.1728,-0.6845 0.1086,-1.211 0.2709,-0.4688 0.4079,-1.677 0.2032,-2.178 -1.029,-2.367 -3.968,-1.951 -5.91,-3.278 -0.7172,-0.7282 -0.6856,-2.151 0.2363,-2.699 l 0.0747,-0.0275 0.0768,-0.0209 h 6e-5 z" />
          </g>
        </g>
      </g>
      <g
         id="layer1-0"
         transform="matrix(0.56235431,0,0,0.56235431,-47.694233,100.67565)">
        <g
           id="g4544-1-7-9"
           transform="matrix(0.2200351,0.14318132,-0.15684359,0.20086838,405.3541,186.31198)">
          <flowRoot
             style="font-size:40px;font-style:normal;font-weight:normal;fill:#000000;font-family:Bitstream Vera Sans"
             id="flowRoot9862-0"
             font-weight="normal"
             xml:space="preserve"
             font-size="40px"
             transform="matrix(3.0135456,-2.1480904,2.3530598,3.301096,-1659.9563,255.70351)"
             font-style="normal"><flowRegion
               id="flowRegion9864-06"><rect
                 id="rect9866-1"
                 y="217"
                 width="214.7"
                 x="210.3"
                 height="44.009998" /></flowRegion><flowPara
               id="flowPara9868-38" /><flowPara
               id="flowPara9903-9" /></flowRoot>        </g>
        <flowRoot
           id="flowRoot13995-3"
           style="font-size:36px;font-style:normal;font-variant:normal;font-weight:normal;font-stretch:normal;text-align:start;line-height:125%;writing-mode:lr-tb;text-anchor:start;fill:#000000;font-family:Arial"
           line-height="125%"
           font-weight="normal"
           xml:space="preserve"
           font-size="36px"
           transform="translate(99.118954,-0.09180462)"
           font-stretch="normal"
           font-variant="normal"
           font-style="normal"><flowRegion
             id="flowRegion13997-4"><rect
               id="rect13999-4"
               style="text-align:start"
               height="51.650002"
               width="1203"
               y="12.93"
               x="47.619999" /></flowRegion><flowPara
             id="flowPara14001-6" /></flowRoot>        <g
           style="fill-rule:nonzero"
           id="g25336"
           transform="matrix(2.1151162,0,0,2.1151162,1695.4836,-544.73752)">
          <path
             style="fill:url(#radialGradient6157);stroke:#484848;stroke-width:2.16562486;stroke-miterlimit:4;stroke-dasharray:none"
             inkscape:connector-curvature="0"
             id="path25315"
             d="m -742.3,142.6 c 0,18.79 -15.23,34.02 -34.02,34.02 -18.79,0 -34.02,-15.23 -34.02,-34.02 0,-18.79 15.23,-34.02 34.02,-34.02 18.79,0 34.02,15.23 34.02,34.02 z"
             transform="matrix(0.31346345,0,0,0.31346345,-546.4247,552.83467)"
             stroke-miterlimit="4" />
          <path
             style="fill:#239a5e"
             inkscape:connector-curvature="0"
             id="path47937-8"
             d="m -795.4,593.1 c -0.9824,0.0997 -1.748,0.9392 -1.748,1.948 0,1.076 0.872,1.948 1.948,1.948 0.8163,0 1.517,-0.5083 1.807,-1.22 l 2.582,0.3051 c 0.0509,0.3625 0.2008,0.6806 0.4224,0.9505 l -1.385,2.112 c -0.1727,-0.0501 -0.3509,-0.0821 -0.5398,-0.0821 -1.076,0 -1.96,0.872 -1.96,1.948 0,1.076 0.8837,1.948 1.96,1.948 1.0763,0 1.948,-0.872 1.948,-1.948 0,-0.5321 -0.2175,-1.01 -0.5632,-1.361 l 1.314,-2.03 c 0.2236,0.0894 0.472,0.1408 0.7275,0.1408 0.3108,0 0.5959,-0.0818 0.8566,-0.2113 l 2.441,2.359 c -0.1844,0.2976 -0.2934,0.645 -0.2934,1.021 0,1.076 0.872,1.948 1.948,1.948 1.076,0 1.948,-0.872 1.948,-1.948 0,-1.076 -0.872,-1.948 -1.948,-1.948 -0.3435,0 -0.6585,0.102 -0.9388,0.2581 l -2.406,-2.323 c 0.2187,-0.3149 0.3403,-0.6906 0.3403,-1.103 0,-1.076 -0.872,-1.948 -1.948,-1.948 -0.8294,0 -1.538,0.5135 -1.819,1.244 l -2.558,-0.3051 c -0.1203,-0.9605 -0.9431,-1.702 -1.936,-1.702 -0.0673,0 -0.134,-0.007 -0.1995,0 z" />
        </g>
      </g>
      <g
         id="layer1-06"
         transform="matrix(0.56235431,0,0,0.56235431,-47.694236,162.17564)">
        <g
           id="g4544-1-7-61"
           transform="matrix(0.2200351,0.14318132,-0.15684359,0.20086838,405.3541,186.31198)">
          <flowRoot
             style="font-size:40px;font-style:normal;font-weight:normal;fill:#000000;font-family:Bitstream Vera Sans"
             id="flowRoot9862-8"
             font-weight="normal"
             xml:space="preserve"
             font-size="40px"
             transform="matrix(3.0135456,-2.1480904,2.3530598,3.301096,-1659.9563,255.70351)"
             font-style="normal"><flowRegion
               id="flowRegion9864-4"><rect
                 id="rect9866-9"
                 y="217"
                 width="214.7"
                 x="210.3"
                 height="44.009998" /></flowRegion><flowPara
               id="flowPara9868-6" /><flowPara
               id="flowPara9903-3" /></flowRoot>        </g>
        <flowRoot
           id="flowRoot13995-78"
           style="font-size:36px;font-style:normal;font-variant:normal;font-weight:normal;font-stretch:normal;text-align:start;line-height:125%;writing-mode:lr-tb;text-anchor:start;fill:#000000;font-family:Arial"
           line-height="125%"
           font-weight="normal"
           xml:space="preserve"
           font-size="36px"
           transform="translate(99.118954,-0.09180462)"
           font-stretch="normal"
           font-variant="normal"
           font-style="normal"><flowRegion
             id="flowRegion13997-82"><rect
               id="rect13999-9"
               style="text-align:start"
               height="51.650002"
               width="1203"
               y="12.93"
               x="47.619999" /></flowRegion><flowPara
             id="flowPara14001-1" /></flowRoot>        <g
           style="fill-rule:nonzero"
           id="g14364"
           transform="translate(1100.2945,3314.2463)">
          <path
             style="fill:url(#radialGradient6159);stroke:#484848;stroke-width:2.16562486;stroke-miterlimit:4;stroke-dasharray:none"
             inkscape:connector-curvature="0"
             id="path14322"
             d="m -742.3,142.6 c 0,18.79 -15.23,34.02 -34.02,34.02 -18.79,0 -34.02,-15.23 -34.02,-34.02 0,-18.79 15.23,-34.02 34.02,-34.02 18.79,0 34.02,15.23 34.02,34.02 z"
             transform="matrix(0.66301162,0,0,0.66301162,-560.56263,-2689.6743)"
             stroke-miterlimit="4" />
          <path
             style="fill:#96b342"
             inkscape:connector-curvature="0"
             id="path14314"
             d="m 745,728.5 c 0,8.338 -6.759,15.1 -15.1,15.1 -8.338,0 -15.1,-6.759 -15.1,-15.1 0,-8.338 6.759,-15.1 15.1,-15.1 8.338,0 15.1,6.759 15.1,15.1 z"
             transform="matrix(0.90014795,0,0,0.90014795,-1732.3283,-3250.911)" />
        </g>
      </g>
      <g
         id="layer1-35"
         transform="matrix(0.56235431,0,0,0.56235431,-47.694233,131.42563)">
        <g
           id="g4544-1-7-98"
           transform="matrix(0.2200351,0.14318132,-0.15684359,0.20086838,405.3541,186.31198)">
          <flowRoot
             style="font-size:40px;font-style:normal;font-weight:normal;fill:#000000;font-family:Bitstream Vera Sans"
             id="flowRoot9862-4"
             font-weight="normal"
             xml:space="preserve"
             font-size="40px"
             transform="matrix(3.0135456,-2.1480904,2.3530598,3.301096,-1659.9563,255.70351)"
             font-style="normal"><flowRegion
               id="flowRegion9864-07"><rect
                 id="rect9866-63"
                 y="217"
                 width="214.7"
                 x="210.3"
                 height="44.009998" /></flowRegion><flowPara
               id="flowPara9868-61" /><flowPara
               id="flowPara9903-54" /></flowRoot>        </g>
        <flowRoot
           id="flowRoot13995-20"
           style="font-size:36px;font-style:normal;font-variant:normal;font-weight:normal;font-stretch:normal;text-align:start;line-height:125%;writing-mode:lr-tb;text-anchor:start;fill:#000000;font-family:Arial"
           line-height="125%"
           font-weight="normal"
           xml:space="preserve"
           font-size="36px"
           transform="translate(99.118954,-0.09180462)"
           font-stretch="normal"
           font-variant="normal"
           font-style="normal"><flowRegion
             id="flowRegion13997-97"><rect
               id="rect13999-37"
               style="text-align:start"
               height="51.650002"
               width="1203"
               y="12.93"
               x="47.619999" /></flowRegion><flowPara
             id="flowPara14001-2" /></flowRoot>        <g
           id="g25359"
           transform="matrix(2.1151162,0,0,2.1151162,1695.4836,-600.63296)">
          <path
             style="fill:url(#radialGradient6161);fill-rule:nonzero;stroke:#484848;stroke-width:2.16562486;stroke-miterlimit:4;stroke-dasharray:none"
             inkscape:connector-curvature="0"
             id="path25342"
             d="m -742.3,142.6 c 0,18.79 -15.23,34.02 -34.02,34.02 -18.79,0 -34.02,-15.23 -34.02,-34.02 0,-18.79 15.23,-34.02 34.02,-34.02 18.79,0 34.02,15.23 34.02,34.02 z"
             transform="matrix(0.31346345,0,0,0.31346345,-546.4247,579.26132)"
             stroke-miterlimit="4" />
          <g
             id="g25353"
             transform="matrix(0.38440486,0,0,0.38440486,-514.05309,349.40495)">
            <rect
               style="fill:#c43386"
               id="rect47943-2"
               rx="2.2509999"
               ry="2.2509999"
               height="11.75"
               width="34.130001"
               y="701.5"
               x="-733.70001" />
            <rect
               style="fill:#47a8d6"
               id="rect47945-4"
               rx="2.2509999"
               ry="2.2509999"
               height="11.75"
               width="34.130001"
               y="715.5"
               x="-733.70001" />
          </g>
        </g>
      </g>
      <g
         id="layer1-5"
         transform="matrix(0.56235431,0,0,0.56235431,-47.694217,-83.824229)">
        <g
           id="g4544-1-7-4"
           transform="matrix(0.2200351,0.14318132,-0.15684359,0.20086838,405.3541,186.31198)">
          <flowRoot
             style="font-size:40px;font-style:normal;font-weight:normal;fill:#000000;font-family:Bitstream Vera Sans"
             id="flowRoot9862-1"
             font-weight="normal"
             xml:space="preserve"
             font-size="40px"
             transform="matrix(3.0135456,-2.1480904,2.3530598,3.301096,-1659.9563,255.70351)"
             font-style="normal"><flowRegion
               id="flowRegion9864-2"><rect
                 id="rect9866-0"
                 y="217"
                 width="214.7"
                 x="210.3"
                 height="44.009998" /></flowRegion><flowPara
               id="flowPara9868-0" /><flowPara
               id="flowPara9903-14" /></flowRoot>        </g>
        <flowRoot
           id="flowRoot13995-6"
           style="font-size:36px;font-style:normal;font-variant:normal;font-weight:normal;font-stretch:normal;text-align:start;line-height:125%;writing-mode:lr-tb;text-anchor:start;fill:#000000;font-family:Arial"
           line-height="125%"
           font-weight="normal"
           xml:space="preserve"
           font-size="36px"
           transform="translate(99.118954,-0.09180462)"
           font-stretch="normal"
           font-variant="normal"
           font-style="normal"><flowRegion
             id="flowRegion13997-0"><rect
               id="rect13999-7"
               style="text-align:start"
               height="51.650002"
               width="1203"
               y="12.93"
               x="47.619999" /></flowRegion><flowPara
             id="flowPara14001-17" /></flowRoot>        <g
           style="fill-rule:nonzero"
           id="g25365"
           transform="matrix(1.5953716,0,0,1.5953716,1239.0474,348.54784)">
          <path
             inkscape:connector-curvature="0"
             id="path25367"
             d="m -742.3,142.6 c 0,18.79 -15.23,34.02 -34.02,34.02 -18.79,0 -34.02,-15.23 -34.02,-34.02 0,-18.79 15.23,-34.02 34.02,-34.02 18.79,0 34.02,15.23 34.02,34.02 z"
             transform="matrix(0.41558444,0,0,0.41558444,-438.34024,173.01562)"
             stroke-miterlimit="4"
             style="fill:url(#radialGradient6163);stroke:#484848;stroke-width:2.16562486;stroke-miterlimit:4;stroke-dasharray:none" />
          <g
             style="fill:#b53131"
             id="g25369"
             transform="matrix(0.57142859,0,0,0.57142859,-851.6005,1346.9763)">
            <rect
               id="rect25371"
               ry="2.3"
               rx="2.3"
               transform="matrix(0,-1,1,0,0,0)"
               height="30.290001"
               width="9.9239998"
               y="144.2"
               x="1946" />
            <rect
               id="rect25373"
               transform="scale(-1,-1)"
               rx="2.3"
               ry="2.3"
               height="30.290001"
               width="9.9239998"
               y="1936"
               x="-163.7" />
          </g>
        </g>
      </g>
      <text
         sodipodi:linespacing="100%"
         id="text56686"
         y="325.84912"
         x="-9.6803284"
         style="font-size:15.24664021px;font-style:normal;font-variant:normal;font-weight:normal;font-stretch:normal;text-align:start;line-height:100%;letter-spacing:0px;word-spacing:0px;writing-mode:lr-tb;text-anchor:start;fill:#000000;fill-opacity:1;stroke:none;font-family:Georgia;-inkscape-font-specification:Georgia"
         xml:space="preserve"><tspan
           y="325.84912"
           x="-9.6803284"
           id="tspan56688"
           sodipodi:role="line">CLIN</tspan></text>
      <g
         id="layer1-1"
         transform="matrix(0.56235431,0,0,0.56235431,-47.694208,-53.074247)">
        <g
           id="g4544-1-7-1"
           transform="matrix(0.2200351,0.14318132,-0.15684359,0.20086838,405.3541,186.31198)">
          <flowRoot
             style="font-size:40px;font-style:normal;font-weight:normal;fill:#000000;font-family:Bitstream Vera Sans"
             id="flowRoot9862-3"
             font-weight="normal"
             xml:space="preserve"
             font-size="40px"
             transform="matrix(3.0135456,-2.1480904,2.3530598,3.301096,-1659.9563,255.70351)"
             font-style="normal"><flowRegion
               id="flowRegion9864-8"><rect
                 id="rect9866-7"
                 y="217"
                 width="214.7"
                 x="210.3"
                 height="44.009998" /></flowRegion><flowPara
               id="flowPara9868-4" /><flowPara
               id="flowPara9903-2" /></flowRoot>        </g>
        <flowRoot
           id="flowRoot13995-77"
           style="font-size:36px;font-style:normal;font-variant:normal;font-weight:normal;font-stretch:normal;text-align:start;line-height:125%;writing-mode:lr-tb;text-anchor:start;fill:#000000;font-family:Arial"
           line-height="125%"
           font-weight="normal"
           xml:space="preserve"
           font-size="36px"
           transform="translate(99.118954,-0.09180462)"
           font-stretch="normal"
           font-variant="normal"
           font-style="normal"><flowRegion
             id="flowRegion13997-9"><rect
               id="rect13999-31"
               style="text-align:start"
               height="51.650002"
               width="1203"
               y="12.93"
               x="47.619999" /></flowRegion><flowPara
             id="flowPara14001-9" /></flowRoot>        <g
           id="g24877"
           transform="matrix(2.1151162,0,0,2.1151162,1692.4053,-128.48538)">
          <path
             style="fill:url(#radialGradient6165);fill-rule:nonzero;stroke:#484848;stroke-width:2.16562486;stroke-miterlimit:4;stroke-dasharray:none"
             inkscape:connector-curvature="0"
             id="path24859"
             d="m -742.3,142.6 c 0,18.79 -15.23,34.02 -34.02,34.02 -18.79,0 -34.02,-15.23 -34.02,-34.02 0,-18.79 15.23,-34.02 34.02,-34.02 18.79,0 34.02,15.23 34.02,34.02 z"
             transform="matrix(0.31346345,0,0,0.31346345,-544.96934,356.03596)"
             stroke-miterlimit="4" />
          <path
             style="fill:#4886bb"
             inkscape:connector-curvature="0"
             id="path47897-9"
             transform="matrix(0.25221418,0,0,0.25221418,-799.48813,124.21826)"
             d="m 73.14,1106 -28.79,21.35 -29.2,-20.79 10.75,-34.2 35.84,-0.3458 z" />
        </g>
      </g>
      <text
         sodipodi:linespacing="100%"
         id="text56690"
         y="356.60657"
         x="-9.4569893"
         style="font-size:15.24664021px;font-style:normal;font-variant:normal;font-weight:normal;font-stretch:normal;text-align:start;line-height:100%;letter-spacing:0px;word-spacing:0px;writing-mode:lr-tb;text-anchor:start;fill:#000000;fill-opacity:1;stroke:none;font-family:Georgia;-inkscape-font-specification:Georgia"
         xml:space="preserve"><tspan
           y="356.60657"
           x="-9.4569893"
           id="tspan56692"
           sodipodi:role="line">METH</tspan></text>
      <g
         id="layer1-3"
         transform="matrix(0.56235431,0,0,0.56235431,-47.694233,-22.324266)">
        <g
           id="g4544-1-7-2"
           transform="matrix(0.2200351,0.14318132,-0.15684359,0.20086838,405.3541,186.31198)">
          <flowRoot
             style="font-size:40px;font-style:normal;font-weight:normal;fill:#000000;font-family:Bitstream Vera Sans"
             id="flowRoot9862-2"
             font-weight="normal"
             xml:space="preserve"
             font-size="40px"
             transform="matrix(3.0135456,-2.1480904,2.3530598,3.301096,-1659.9563,255.70351)"
             font-style="normal"><flowRegion
               id="flowRegion9864-1"><rect
                 id="rect9866-6"
                 y="217"
                 width="214.7"
                 x="210.3"
                 height="44.009998" /></flowRegion><flowPara
               id="flowPara9868-8" /><flowPara
               id="flowPara9903-5" /></flowRoot>        </g>
        <flowRoot
           id="flowRoot13995-7"
           style="font-size:36px;font-style:normal;font-variant:normal;font-weight:normal;font-stretch:normal;text-align:start;line-height:125%;writing-mode:lr-tb;text-anchor:start;fill:#000000;font-family:Arial"
           line-height="125%"
           font-weight="normal"
           xml:space="preserve"
           font-size="36px"
           transform="translate(99.118954,-0.09180462)"
           font-stretch="normal"
           font-variant="normal"
           font-style="normal"><flowRegion
             id="flowRegion13997-6"><rect
               id="rect13999-1"
               style="text-align:start"
               height="51.650002"
               width="1203"
               y="12.93"
               x="47.619999" /></flowRegion><flowPara
             id="flowPara14001-8" /></flowRoot>        <g
           id="g24922"
           transform="matrix(2.1151162,0,0,2.1151162,1695.4836,-212.62437)">
          <path
             style="fill:url(#radialGradient6167);fill-rule:nonzero;stroke:#484848;stroke-width:2.16562486;stroke-miterlimit:4;stroke-dasharray:none"
             inkscape:connector-curvature="0"
             id="path24899"
             d="m -742.3,142.6 c 0,18.79 -15.23,34.02 -34.02,34.02 -18.79,0 -34.02,-15.23 -34.02,-34.02 0,-18.79 15.23,-34.02 34.02,-34.02 18.79,0 34.02,15.23 34.02,34.02 z"
             transform="matrix(0.31346345,0,0,0.31346345,-546.4247,395.8158)"
             stroke-miterlimit="4" />
          <path
             style="fill:#b56831"
             inkscape:connector-curvature="0"
             id="path24915"
             d="m -797.9,442.2 c 4.4e-4,-1.045 1.458,-1.554 2.156,-2.092 0.8708,-0.5858 1.678,-1.296 2.636,-1.733 1.362,-0.3593 2.686,0.8198 2.917,2.122 0.2791,1.076 -0.2173,2.128 -0.4932,3.144 -0.0664,0.9989 0.5173,1.922 1.156,2.635 0.7288,0.5717 1.675,0.7807 2.57,0.9022 1.091,-0.1147 1.797,-1.071 2.733,-1.532 0.729,-0.5748 1.463,-1.582 1.141,-2.546 -0.3937,-0.9179 -1.336,-1.429 -1.814,-2.294 -0.558,-0.7742 -1.362,-1.534 -1.371,-2.551 0.0224,-1.051 0.5177,-2.067 1.309,-2.752 0.5917,-0.5187 0.5122,-1.854 -0.4892,-1.616 -0.9906,0.344 -1.564,1.317 -2.088,2.165 -0.3509,0.7008 -0.645,1.536 -0.4527,2.316 0.5864,1.503 1.359,2.928 2.268,4.257 0.3332,0.751 0.0339,1.959 -0.9053,2.046 -0.9271,0.1214 -1.764,-0.5911 -1.842,-1.522 -0.1144,-1.175 -0.5696,-2.279 -1.058,-3.34 -0.3649,-0.9613 -0.4982,-2.082 -1.237,-2.849 -1.125,-0.9028 -2.801,-0.7434 -3.999,-0.0685 -0.835,0.5219 -1.601,1.147 -2.434,1.672 -0.9263,0.6986 -1.746,1.962 -1.248,3.138 0.1426,0.3067 0.152,1.189 0.4808,0.8429 z" />
        </g>
      </g>
      <text
         sodipodi:linespacing="100%"
         id="text56694"
         y="387.34909"
         x="-9.6803284"
         style="font-size:15.24664021px;font-style:normal;font-variant:normal;font-weight:normal;font-stretch:normal;text-align:start;line-height:100%;letter-spacing:0px;word-spacing:0px;writing-mode:lr-tb;text-anchor:start;fill:#000000;fill-opacity:1;stroke:none;font-family:Georgia;-inkscape-font-specification:Georgia"
         xml:space="preserve"><tspan
           y="387.34909"
           x="-9.6803284"
           id="tspan56696"
           sodipodi:role="line">GEXP</tspan></text>
      <g
         id="layer1-9"
         transform="matrix(0.56235431,0,0,0.56235431,-47.694233,8.4257068)">
        <g
           id="g4544-1-7-27"
           transform="matrix(0.2200351,0.14318132,-0.15684359,0.20086838,405.3541,186.31198)">
          <flowRoot
             style="font-size:40px;font-style:normal;font-weight:normal;fill:#000000;font-family:Bitstream Vera Sans"
             id="flowRoot9862-9"
             font-weight="normal"
             xml:space="preserve"
             font-size="40px"
             transform="matrix(3.0135456,-2.1480904,2.3530598,3.301096,-1659.9563,255.70351)"
             font-style="normal"><flowRegion
               id="flowRegion9864-5"><rect
                 id="rect9866-4"
                 y="217"
                 width="214.7"
                 x="210.3"
                 height="44.009998" /></flowRegion><flowPara
               id="flowPara9868-3" /><flowPara
               id="flowPara9903-1" /></flowRoot>        </g>
        <flowRoot
           id="flowRoot13995-2"
           style="font-size:36px;font-style:normal;font-variant:normal;font-weight:normal;font-stretch:normal;text-align:start;line-height:125%;writing-mode:lr-tb;text-anchor:start;fill:#000000;font-family:Arial"
           line-height="125%"
           font-weight="normal"
           xml:space="preserve"
           font-size="36px"
           transform="translate(99.118954,-0.09180462)"
           font-stretch="normal"
           font-variant="normal"
           font-style="normal"><flowRegion
             id="flowRegion13997-3"><rect
               id="rect13999-3"
               style="text-align:start"
               height="51.650002"
               width="1203"
               y="12.93"
               x="47.619999" /></flowRegion><flowPara
             id="flowPara14001-4" /></flowRoot>        <g
           style="fill-rule:nonzero"
           id="g25377"
           transform="matrix(2.1151162,0,0,2.1151162,1695.4836,-311.54987)">
          <path
             style="fill:url(#radialGradient6169);stroke:#484848;stroke-width:2.16562486;stroke-miterlimit:4;stroke-dasharray:none"
             inkscape:connector-curvature="0"
             id="path24928"
             d="m -742.3,142.6 c 0,18.79 -15.23,34.02 -34.02,34.02 -18.79,0 -34.02,-15.23 -34.02,-34.02 0,-18.79 15.23,-34.02 34.02,-34.02 18.79,0 34.02,15.23 34.02,34.02 z"
             transform="matrix(0.31346345,0,0,0.31346345,-546.4247,442.58652)"
             stroke-miterlimit="4" />
          <path
             style="fill:#d09a31"
             inkscape:connector-curvature="0"
             id="path24940"
             transform="matrix(0.2365124,0,0,0.2365124,-810.73081,256.50853)"
             d="m 89.76,1010 -31.08,-53.84 62.17,-10e-6 z" />
        </g>
      </g>
      <text
         sodipodi:linespacing="100%"
         id="text56698"
         y="418.09906"
         x="-9.6803284"
         style="font-size:15.24664021px;font-style:normal;font-variant:normal;font-weight:normal;font-stretch:normal;text-align:start;line-height:100%;letter-spacing:0px;word-spacing:0px;writing-mode:lr-tb;text-anchor:start;fill:#000000;fill-opacity:1;stroke:none;font-family:Georgia;-inkscape-font-specification:Georgia"
         xml:space="preserve"><tspan
           y="418.09906"
           x="-9.6803284"
           id="tspan56700"
           sodipodi:role="line">GNAB</tspan></text>
      <text
         sodipodi:linespacing="100%"
         id="text56702"
         y="448.80438"
         x="-9.4569893"
         style="font-size:15.24664021px;font-style:normal;font-variant:normal;font-weight:normal;font-stretch:normal;text-align:start;line-height:100%;letter-spacing:0px;word-spacing:0px;writing-mode:lr-tb;text-anchor:start;fill:#000000;fill-opacity:1;stroke:none;font-family:Georgia;-inkscape-font-specification:Georgia"
         xml:space="preserve"><tspan
           y="448.80438"
           x="-9.4569893"
           id="tspan56704"
           sodipodi:role="line">MIRN</tspan></text>
      <text
         sodipodi:linespacing="100%"
         id="text56706"
         y="479.59903"
         x="-9.6803284"
         style="font-size:15.24664021px;font-style:normal;font-variant:normal;font-weight:normal;font-stretch:normal;text-align:start;line-height:100%;letter-spacing:0px;word-spacing:0px;writing-mode:lr-tb;text-anchor:start;fill:#000000;fill-opacity:1;stroke:none;font-family:Georgia;-inkscape-font-specification:Georgia"
         xml:space="preserve"><tspan
           y="479.59903"
           x="-9.6803284"
           id="tspan56708"
           sodipodi:role="line">CNVR</tspan></text>
      <text
         sodipodi:linespacing="100%"
         id="text56710"
         y="510.35648"
         x="-9.7771091"
         style="font-size:15.24664021px;font-style:normal;font-variant:normal;font-weight:normal;font-stretch:normal;text-align:start;line-height:100%;letter-spacing:0px;word-spacing:0px;writing-mode:lr-tb;text-anchor:start;fill:#000000;fill-opacity:1;stroke:none;font-family:Georgia;-inkscape-font-specification:Georgia"
         xml:space="preserve"><tspan
           y="510.35648"
           x="-9.7771091"
           id="tspan56712"
           sodipodi:role="line">PRDM</tspan></text>
      <text
         sodipodi:linespacing="100%"
         id="text56714"
         y="541.11755"
         x="-9.7994432"
         style="font-size:15.24664021px;font-style:normal;font-variant:normal;font-weight:normal;font-stretch:normal;text-align:start;line-height:100%;letter-spacing:0px;word-spacing:0px;writing-mode:lr-tb;text-anchor:start;fill:#000000;fill-opacity:1;stroke:none;font-family:Georgia;-inkscape-font-specification:Georgia"
         xml:space="preserve"><tspan
           y="541.11755"
           x="-9.7994432"
           id="tspan56716"
           sodipodi:role="line">SAMP</tspan></text>
      <text
         sodipodi:linespacing="100%"
         id="text56718"
         y="571.93085"
         x="-9.8292217"
         style="font-size:15.24664021px;font-style:normal;font-variant:normal;font-weight:normal;font-stretch:normal;text-align:start;line-height:100%;letter-spacing:0px;word-spacing:0px;writing-mode:lr-tb;text-anchor:start;fill:#000000;fill-opacity:1;stroke:none;font-family:Georgia;-inkscape-font-specification:Georgia"
         xml:space="preserve"><tspan
           y="571.93085"
           x="-9.8292217"
           id="tspan56720"
           sodipodi:role="line">RPPA</tspan></text>
    </g>
    <rect
       ry="6.403636"
       rx="6.654911"
       y="440.99036"
       x="150.9892"
       height="287.50885"
       width="98.508835"
       id="rect3407"
       style="fill:none;stroke:#4c4c4c;stroke-width:0.49115986;stroke-linecap:butt;stroke-linejoin:round;stroke-miterlimit:4;stroke-opacity:1;stroke-dasharray:none" />
  </g>
</svg>
