<?xml version="1.0" encoding="UTF-8" standalone="no"?>

<!-- Created with Inkscape (http://www.inkscape.org/) -->

<svg id="svg6232" xmlns:rdf="http://www.w3.org/1999/02/22-rdf-syntax-ns#" xmlns="http://www.w3.org/2000/svg" viewBox="0 0 50 50" version="1.1" xmlns:cc="http://creativecommons.org/ns#" xmlns:xlink="http://www.w3.org/1999/xlink" xmlns:dc="http://purl.org/dc/elements/1.1/">

 <defs id="defs6234">

  <radialGradient id="radialGradient25612" gradientUnits="userSpaceOnUse" cy="142.6" cx="-776.4" r="34.02">

   <stop id="stop7574-7-54" stop-color="#FFF" offset="0"/>

   <stop id="stop7580-4-6" stop-color="#f3f3f3" offset="0.7412"/>

   <stop id="stop7576-0-2" stop-color="#c2c2c2" offset="1"/>

  </radialGradient>

 </defs>


 <g id="layer1" transform="translate(0,-694.09445)">

  <g id="g25336" fill-rule="nonzero" transform="matrix(2.1151162,0,0,2.1151162,1695.4836,-544.73752)">

   <path id="path25315" d="m-742.3,142.6c0,18.79-15.23,34.02-34.02,34.02s-34.02-15.23-34.02-34.02,15.23-34.02,34.02-34.02,34.02,15.23,34.02,34.02z" transform="matrix(0.31346345,0,0,0.31346345,-546.4247,552.83467)" stroke="#484848" stroke-miterlimit="4" stroke-dasharray="none" stroke-width="2.16562486" fill="url(#radialGradient25612)"/>

   <path id="path47937-8" fill="#239a5e" d="m-795.4,593.1c-0.9824,0.0997-1.748,0.9392-1.748,1.948,0,1.076,0.872,1.948,1.948,1.948,0.8163,0,1.517-0.5083,1.807-1.22l2.582,0.3051c0.0509,0.3625,0.2008,0.6806,0.4224,0.9505l-1.385,2.112c-0.1727-0.0501-0.3509-0.0821-0.5398-0.0821-1.076,0-1.96,0.872-1.96,1.948s0.8837,1.948,1.96,1.948,1.948-0.872,1.948-1.948c0-0.5321-0.2175-1.01-0.5632-1.361l1.314-2.03c0.2236,0.0894,0.472,0.1408,0.7275,0.1408,0.3108,0,0.5959-0.0818,0.8566-0.2113l2.441,2.359c-0.1844,0.2976-0.2934,0.645-0.2934,1.021,0,1.076,0.872,1.948,1.948,1.948s1.948-0.872,1.948-1.948-0.872-1.948-1.948-1.948c-0.3435,0-0.6585,0.102-0.9388,0.2581l-2.406-2.323c0.2187-0.3149,0.3403-0.6906,0.3403-1.103,0-1.076-0.872-1.948-1.948-1.948-0.8294,0-1.538,0.5135-1.819,1.244l-2.558-0.3051c-0.1203-0.9605-0.9431-1.702-1.936-1.702-0.0673,0-0.134-0.007-0.1995,0z"/>

  </g>

 </g>

</svg>

