<?xml version="1.0" encoding="UTF-8" standalone="no"?>

<!-- Created with Inkscape (http://www.inkscape.org/) -->

<svg id="svg6232" xmlns:rdf="http://www.w3.org/1999/02/22-rdf-syntax-ns#" xmlns="http://www.w3.org/2000/svg" viewBox="0 0 50 50" version="1.1" xmlns:cc="http://creativecommons.org/ns#" xmlns:xlink="http://www.w3.org/1999/xlink" xmlns:dc="http://purl.org/dc/elements/1.1/">

 <defs id="defs6234">

  <radialGradient id="radialGradient14360" gradientUnits="userSpaceOnUse" cy="142.6" cx="-776.4" r="34.02">

   <stop id="stop7574-7-0" stop-color="#FFF" offset="0"/>

   <stop id="stop7580-4-1" stop-color="#f3f3f3" offset="0.7412"/>

   <stop id="stop7576-0-66" stop-color="#c2c2c2" offset="1"/>

  </radialGradient>

 </defs>

 <g id="layer1" transform="translate(0,-694.09445)">

  <g id="g14364" fill-rule="nonzero" transform="translate(1100.2945,3314.2463)">

   <path id="path14322" d="m-742.3,142.6c0,18.79-15.23,34.02-34.02,34.02s-34.02-15.23-34.02-34.02,15.23-34.02,34.02-34.02,34.02,15.23,34.02,34.02z" transform="matrix(0.66301162,0,0,0.66301162,-560.56263,-2689.6743)" stroke="#484848" stroke-miterlimit="4" stroke-dasharray="none" stroke-width="2.16562486" fill="url(#radialGradient14360)"/>

   <path id="path14314" d="m745,728.5c0,8.338-6.759,15.1-15.1,15.1-8.338,0-15.1-6.759-15.1-15.1,0-8.338,6.759-15.1,15.1-15.1,8.338,0,15.1,6.759,15.1,15.1z" transform="matrix(0.90014795,0,0,0.90014795,-1732.3283,-3250.911)" fill="#96b342"/>

  </g>

 </g>

</svg>

