<?xml version="1.0" encoding="UTF-8" standalone="no"?>

<!-- Created with Inkscape (http://www.inkscape.org/) -->

<svg id="svg6232" xmlns:rdf="http://www.w3.org/1999/02/22-rdf-syntax-ns#" xmlns="http://www.w3.org/2000/svg" viewBox="0 0 50 50" version="1.1" xmlns:cc="http://creativecommons.org/ns#" xmlns:xlink="http://www.w3.org/1999/xlink" xmlns:dc="http://purl.org/dc/elements/1.1/">

 <defs id="defs6234">

  <radialGradient id="radialGradient25616" gradientUnits="userSpaceOnUse" cy="142.6" cx="-776.4" r="34.02">

   <stop id="stop7574-7" stop-color="#FFF" offset="0"/>

   <stop id="stop7580-4" stop-color="#f3f3f3" offset="0.7412"/>

   <stop id="stop7576-0" stop-color="#c2c2c2" offset="1"/>

  </radialGradient>

 </defs>

 <g id="layer1" transform="translate(0,-694.09445)">

  <g id="g25365" fill-rule="nonzero" transform="matrix(1.5953716,0,0,1.5953716,1239.0474,348.54784)">

   <path id="path25367" d="m-742.3,142.6c0,18.79-15.23,34.02-34.02,34.02s-34.02-15.23-34.02-34.02,15.23-34.02,34.02-34.02,34.02,15.23,34.02,34.02z" transform="matrix(0.41558444,0,0,0.41558444,-438.34024,173.01562)" stroke="#484848" stroke-miterlimit="4" stroke-dasharray="none" stroke-width="2.16562486" fill="url(#radialGradient25616)"/>

   <g id="g25369" fill="#b53131" transform="matrix(0.57142859,0,0,0.57142859,-851.6005,1346.9763)">

    <rect id="rect25371" ry="2.3" rx="2.3" transform="matrix(0,-1,1,0,0,0)" height="30.29" width="9.924" y="144.2" x="1946"/>

    <rect id="rect25373" transform="scale(-1,-1)" rx="2.3" ry="2.3" height="30.29" width="9.924" y="1936" x="-163.7"/>

   </g>

  </g>

 </g>

</svg>

